<?xml version="1.0" encoding="UTF-8"?>
<svg id="a" xmlns="http://www.w3.org/2000/svg" viewBox="0 0 186.847 155.701">
  <polyline points="14.615 81.887 14.615 37.407 67.345 37.407 123.67 19.02" fill="none" stroke="#fff" stroke-miterlimit="10" stroke-width="1.7"/>
  <circle cx="14.615" cy="81.887" r="11.136" fill="#fff" stroke-width="0"/>
  <path d="M165.86,110.498c-2.992.144-5.29.52-7.515.265-1.393-.16-3.234-.937-3.883-2.027-1.02-1.714.237-3.21,1.897-4.204,6.747-4.04,13.456-8.144,20.221-12.153,3.018-1.788,5.168-.748,5.824,2.727,1.439,7.626,2.794,15.268,4.282,22.884.374,1.915.206,3.473-1.641,4.408-1.956.991-3.269-.114-4.413-1.571-1.415-1.802-2.838-3.599-4.268-5.412-3.479,4.315-6.67,8.735-10.331,12.723-8.744,9.523-19.146,16.402-31.892,19.581-1.991.496-3.675,2.591-5.289,4.165-5.141,5.017-5.357,5.153-10.208.024-2.518-2.663-5.33-4.242-8.877-5.308-15.995-4.808-27.53-15.48-36.827-28.917-.528-.764-1.064-1.523-1.749-2.503-1.632,2.064-2.916,4.128-4.645,5.706-1.016.928-2.873,1.706-4.112,1.439-1.934-.416-2.168-2.275-1.79-4.22,1.501-7.712,2.862-15.45,4.337-23.167.63-3.298,2.809-4.323,5.689-2.618,6.849,4.055,13.701,8.113,20.398,12.41,1.07.686,1.929,2.652,1.845,3.96-.122,1.925-2.015,2.273-3.779,2.182-2.291-.118-4.583-.219-7.586-.361,8.9,11.344,20.732,14.938,33.877,16.284V55.419c-2.901.376-5.722.478-8.396,1.159-3.02.77-5.847.204-7.755-2.196-1.904-2.395-1.997-5.504-.238-8.031,1.669-2.399,4.771-3.293,7.663-2.569,2.72.68,5.526,1.014,8.839,1.597,0-3.692.144-6.728-.095-9.734-.065-.813-1.253-1.57-1.985-2.292-4.324-4.269-5.708-10.833-3.387-16.179,2.556-5.888,8.336-9.456,14.697-9.073,5.805.349,11.182,4.542,12.908,10.329,1.638,5.494.609,10.602-3.58,14.55-1.924,1.813-2.54,3.571-2.351,5.998.14,1.804.028,3.627.028,6.169,2.913-.376,5.665-.422,8.227-1.142,3.136-.883,6.16-.377,8.066,2.027,1.963,2.476,1.998,5.774.087,8.263-1.91,2.488-4.858,3.076-7.998,2.238-2.588-.691-5.345-.755-8.236-1.123v71.355c13.088-1.249,24.845-4.907,33.94-16.268ZM123.664,26.563c2.091.006,3.892-1.729,3.897-3.754.006-2.018-1.798-3.782-3.873-3.788-2.075-.006-3.89,1.745-3.899,3.764-.009,2.022,1.786,3.773,3.875,3.779Z" fill="#fff" stroke-width="0"/>
  <circle cx="67.345" cy="37.407" r="14.615" fill="#fff" stroke-width="0"/>
  <circle cx="123.67" cy="19.02" r="19.02" fill="#fff" stroke-width="0"/>
  <circle cx="14.615" cy="37.407" r="14.615" fill="#fff" stroke-width="0"/>
</svg>
